<svg id="Layer_1" data-name="Layer 1" xmlns="http://www.w3.org/2000/svg" viewBox="0 0 42.56 31.13"><defs><style>.cls-1{fill:#e8a5a8;}.cls-2{fill:#be7987;}.cls-3{fill:#ffbeae;}.cls-4{font-size:18.03px;font-family:Gardenisa;}.cls-4,.cls-5{fill:#8f2d56;}.cls-5{font-size:2.24px;font-family:Montserrat-Regular, Montserrat;letter-spacing:0.2em;}.cls-6{letter-spacing:0.18em;}.cls-7{letter-spacing:0.19em;}.cls-8{letter-spacing:0.2em;}.cls-9{letter-spacing:0.19em;}</style></defs><path class="cls-1" d="M37.33,17.89c.34,0,.67,0,1,0-2.88-.66-6,.34-8.9,1.05a56,56,0,0,0-8.38,2.65,12.69,12.69,0,0,0-1.35.34,26.7,26.7,0,0,0-7,5.58A8.91,8.91,0,0,0,11.59,29c-.24.38-.37.64-.37.64-.2.29-.37.61-.09.45.49-.41,1.78-1.42,1.88-1.25s-.24.23-.5.43c.1.17-.54,1-.8,1.14S10,31.79,9.72,32s0,.05.77-.2,1.76-.54,2.38-.72.11.18.17.27c.58-.24.94-.23,1.53-.44,0,0,.48-.1,1.06-.23l1.72-.4a6,6,0,0,1,1.17-.35c.3-.07.27-.14.24-.2l.06.13c.24-.21.9-.19,1.17-.33l.07.16a11.42,11.42,0,0,1,1.75-.41l.07.18c.3-.05.6-.09.63,0l.07.19c.33.06.86-.2.92,0l-.07-.2a15.88,15.88,0,0,1,3,0c2.44.37,5.07.09,7.61.56.28.07.54-.2.23-.59l.86.19c.56.1.26-.45.83-.37A36.41,36.41,0,0,0,43.13,28,22.41,22.41,0,0,0,47,26.64a11,11,0,0,0,4.11-2.77,9.77,9.77,0,0,1-3.75,2.33c0-.09,0-.27-.32-.15-2,.63-4.18,1.36-5.09.9a2.17,2.17,0,0,0-1.52-.47l.93-.09,0-.49a38.32,38.32,0,0,1-4-.35V25h-.62c-.65-1.23,2.8-1.08,4.39-1.23l0-.66-.64,0v-.34c1.91.09,3.5.21,5.4.37L44.67,23c0-.13,0-.26-.3-.29a41.1,41.1,0,0,0,4.11.4c.31,0,0-.28-.91-.58S46,22.2,45.05,22l0-.26a21.89,21.89,0,0,0,2.2.52c.32,0-.6-.48-.28-.49a3.42,3.42,0,0,0,.92.22c-.9-.34-2.18-.61-3.12-1-.3-.21-.61-.44-.6-.72a6.75,6.75,0,0,1-3.84-2C40,17.89,38.35,17.84,37.33,17.89Z" transform="translate(-8.54 -11.65)"/><polygon class="cls-1" points="29.17 27.53 29.22 27.52 29.26 27.39 29.17 27.53"/><path class="cls-1" d="M38.17,38.56s0,0-.06,0l-.19.45C38.15,39,38,38.58,38.17,38.56Z" transform="translate(-8.54 -11.65)"/><path class="cls-1" d="M38.29,38.5a.24.24,0,0,0,.15-.25C38.45,38.35,38.18,38.44,38.29,38.5Z" transform="translate(-8.54 -11.65)"/><path class="cls-1" d="M43.59,25.22v.05S43.6,25.23,43.59,25.22Z" transform="translate(-8.54 -11.65)"/><path class="cls-1" d="M42.26,21.62h-.09a3.54,3.54,0,0,1,.45,1c.1.37.19.75.32,1.1l0,0a15.83,15.83,0,0,1,.38,5.49s0,0,0-.08a.65.65,0,0,1,0,.31s0,0,0-.07c-.23.36-.15,1.17-.33,1.39,0,.11,0,.17.08.12a17.19,17.19,0,0,1-1.76,4.27c-.06,0-.1,0-.13,0a8.73,8.73,0,0,1-2.54,3.1c0,.08.15,0,.09.09.39-.22.47-.66.82-.86v.08c.23-.18-.06-.14.2-.3s0,.07.07,0a6.86,6.86,0,0,0,1.08-1.47c.18-.05.36-.54.58-.67.05-.15.15-.28.11-.37a14.12,14.12,0,0,0,2.07-6.08,4.27,4.27,0,0,1,0-.8c0-.28,0-.56,0-.85a7.18,7.18,0,0,0,0-1.79h0a10.41,10.41,0,0,1-.3-1.4,2.53,2.53,0,0,0-.2-.36,12.75,12.75,0,0,0-4.39-7.17,13.08,13.08,0,0,0-4-2.4,10.72,10.72,0,0,0-4.55-.7s0,0,.06,0a13.89,13.89,0,0,0-2.6.14v0a15.06,15.06,0,0,0-6,2.34A14.84,14.84,0,0,0,16.3,21.3l0,0a15.53,15.53,0,0,0-1.88,5.89c-.32,2.18.43,4.43,1.11,6.44.3,1.36,1.64,2.62,2.3,3.66A9.34,9.34,0,0,0,19,38.75a10.22,10.22,0,0,0,1.56,1.14,11.72,11.72,0,0,0,3.59,1.35,16.45,16.45,0,0,0,6.94.34,13,13,0,0,1,1.66-.4,6.4,6.4,0,0,0,1.73-.53l-.07,0c.49,0,.76-.65,1.12-.55l0,0c.27,0,.31-.53.51-.46v-.08c.22-.16.07.05.26,0s0-.12.12-.19c.18.21.52-.43.72-.19-.13.08.27-.05,0,.2.1,0,.48-.31.37-.39s0-.34-.27-.25v.11c-.14,0-.09,0-.16,0-.31.2-.44.11-.68.2h0c-.08.2-.32.28-.44.35l-.08,0c-.14-.06-.25.39-.25.17-.31.2-.65.41-1,.6l-1.13.5c-.08.13-.6.2-.38.28a2.23,2.23,0,0,0-1.06.14,0,0,0,0,1,0,0c-.47-.1-.46.31-.92.14,0,.21-.74.11-.94.33-.05,0-.08-.07-.06-.1a14.94,14.94,0,0,1-2.18.07c-.54.12-1.28-.11-1.76,0a10.3,10.3,0,0,0-1.49-.35h.05c-.59-.11-1.29-.36-1.73-.38-.1-.26-.35-.31-.55-.5a4.45,4.45,0,0,1-.78-.28c-.3-.13-.6-.33-.89-.44,0-.14-.46-.23-.4-.37a8.28,8.28,0,0,1-3.76-4.14l0,0c-.18-.17-.46-.33-.67-.5,0,0,0,0,.05,0a5.83,5.83,0,0,1-.34-.94s0,0,.07,0c-.17-.27-.16-.64-.37-1l0,0-.12-.21s.12,0,.14.1a13.88,13.88,0,0,1,0-8.69v.12c0-.19.06-.39.11-.57,0,0,0,0,0,.07a6.6,6.6,0,0,0,.43-1,7.69,7.69,0,0,1,.48-1s0,.13.08.06c.12-.55.58-.64.49-1a.05.05,0,0,1,.08.06,10.88,10.88,0,0,1,3-3.34,6.3,6.3,0,0,1,1.49-1.26c.58-.33,1.16-.69,1.72-1l0,.05a12.08,12.08,0,0,1,5-1.37c.73,0,1.22-.13,1.95-.07l0,.07c1.27-.2,2.52.52,3.8.66l-.11.05c.23-.06.71.31.72.07l.19.15c.93.08,1.39.77,2.38,1.19h-.08a1.89,1.89,0,0,1,.69.46s0,0-.09,0c.59.69,1.47,1.17,2.1,1.89h-.15A6.91,6.91,0,0,1,41,19.4H41l.22.22-.07.05c.23.31.4.65.6,1A6,6,0,0,1,42.26,21.62Z" transform="translate(-8.54 -11.65)"/><path class="cls-1" d="M43.24,29.33h0Z" transform="translate(-8.54 -11.65)"/><path class="cls-1" d="M36.34,39l.09,0S36.37,39,36.34,39Z" transform="translate(-8.54 -11.65)"/><polygon class="cls-2" points="32.27 21.07 32.31 21.04 32.28 20.9 32.27 21.07"/><path class="cls-2" d="M40.93,32s0,0-.06,0l0,.49C41.1,32.33,40.8,32,40.93,32Z" transform="translate(-8.54 -11.65)"/><path class="cls-2" d="M41,31.85a.24.24,0,0,0,0-.29C41.08,31.64,40.88,31.84,41,31.85Z" transform="translate(-8.54 -11.65)"/><path class="cls-2" d="M39.34,17.68l0,0S39.35,17.68,39.34,17.68Z" transform="translate(-8.54 -11.65)"/><path class="cls-2" d="M36.45,15.15l-.08,0a4,4,0,0,1,.88.67,8.75,8.75,0,0,0,.8.81l-.06,0a16.26,16.26,0,0,1,3,4.64s-.05,0-.07-.05.16.15.18.25,0,0-.06,0c0,.43.42,1.11.38,1.38,0,.1.1.14.13.07A17.47,17.47,0,0,1,42,27.48c0,.07-.07.08-.11.06a8.71,8.71,0,0,1-.79,3.93c0,.06.11-.11.12,0,.24-.37.11-.8.33-1.14l0,.06c.12-.26-.12-.09,0-.36.07-.1.06.05.08,0a6.62,6.62,0,0,0,.25-1.8c.13-.13.07-.65.2-.87,0-.16,0-.32-.08-.38A14.1,14.1,0,0,0,41,20.69c-.56-.86-.92-2-1.66-3,0,0,0,0,0,0a8.59,8.59,0,0,1-.94-1.09l-.34-.22a13.37,13.37,0,0,0-7.22-4.31,13.73,13.73,0,0,0-4.66-.35,10.74,10.74,0,0,0-4.38,1.38s0,0,0-.06c-.42.18-.8.4-1.18.6a5.37,5.37,0,0,0-1.09.68v0a14.87,14.87,0,0,0-4.28,4.78,14.25,14.25,0,0,0-2,7.51h0a15,15,0,0,0,1.17,6.06c.77,2.06,2.5,3.67,4.05,5.12.91,1.06,2.67,1.55,3.74,2.17a10,10,0,0,0,7.49.69A16.54,16.54,0,0,0,36,37.84a13,13,0,0,1,1.3-1.1c.23-.18.48-.37.7-.57a5.71,5.71,0,0,0,.6-.69h-.07c.44-.22.38-.92.75-1l0,.05c.24-.12,0-.62.25-.65l0-.06c.13-.25.08,0,.21-.16s-.09-.09,0-.22c.26.1.27-.63.55-.51-.07.14.22-.16.11.18.08-.07.29-.5.15-.52s-.13-.31-.36-.1l.07.09c-.14,0-.08,0-.16,0-.19.32-.34.3-.51.5h0c0,.21-.16.4-.24.51l-.08,0c-.15,0,0,.46-.14.27-.19.31-.39.66-.63,1l-.78,1c0,.14-.44.44-.21.42a2.35,2.35,0,0,0-.89.59s0,0,0-.05c-.48.11-.28.48-.76.54,0,.09-.12.2-.29.32s-.37.23-.41.39c-.06,0-.1,0-.1-.07a13.48,13.48,0,0,1-1.92,1c-.43.35-1.2.45-1.57.78a11.13,11.13,0,0,0-1.49.35l0,0a16.54,16.54,0,0,0-1.72.43c-.2-.18-.45-.14-.71-.2a6.5,6.5,0,0,1-.83.1c-.33,0-.68,0-1,0-.09-.11-.51,0-.52-.16a8.54,8.54,0,0,1-5.25-1.95h0c-.24-.06-.56-.07-.82-.13,0,0,0,0,0,0-.3-.16-.47-.46-.74-.67h.08c-.28-.15-.43-.49-.78-.66v-.05l-.2-.13s.09-.07.17,0a14,14,0,0,1-4.19-7.61l.06.1c-.06-.19-.13-.37-.18-.56,0,0,0,0,.05.05,0-.74-.21-1.49-.16-2.21,0,0,.07.11.09,0-.14-.54.21-.83,0-1.12a.06.06,0,0,1,.1,0,10.52,10.52,0,0,1,1-4.33,6,6,0,0,1,.75-1.8c.36-.56.71-1.14,1.06-1.7l0,0a11.86,11.86,0,0,1,3.87-3.47c.66-.32,1-.65,1.72-.92l.05,0c1.05-.73,2.49-.65,3.7-1.08l-.08.09c.18-.15.77,0,.68-.25l.23,0c.87-.33,1.59.07,2.66,0l-.07.05a1.92,1.92,0,0,1,.82.09.14.14,0,0,1-.09,0c.84.35,1.84.38,2.73.73l-.14,0a7.75,7.75,0,0,1,1.73.73l0,0,.3.08,0,.09c.35.17.66.38,1,.57A5.25,5.25,0,0,1,36.45,15.15Z" transform="translate(-8.54 -11.65)"/><path class="cls-2" d="M41,21.44Z" transform="translate(-8.54 -11.65)"/><path class="cls-2" d="M39.51,33.19l.06-.07S39.52,33.16,39.51,33.19Z" transform="translate(-8.54 -11.65)"/><polygon class="cls-3" points="32.81 22.02 32.86 21.99 32.79 21.84 32.81 22.02"/><path class="cls-3" d="M41.35,32.87s-.06,0-.08,0l.15.51C41.64,33.26,41.2,33,41.35,32.87Z" transform="translate(-8.54 -11.65)"/><path class="cls-3" d="M41.41,32.76c.12-.15,0-.25,0-.3S41.26,32.75,41.41,32.76Z" transform="translate(-8.54 -11.65)"/><path class="cls-3" d="M37.84,18.86l0,0A.05.05,0,0,0,37.84,18.86Z" transform="translate(-8.54 -11.65)"/><path class="cls-3" d="M34.58,16.8l-.1.07a3.58,3.58,0,0,1,1,.54,7.58,7.58,0,0,0,.89.72h-.07a17.75,17.75,0,0,1,3.63,4.14s-.06,0-.08,0,.19.12.23.21-.06,0-.09,0c0,.42.6,1,.58,1.3.06.1.15.12.18,0a18.1,18.1,0,0,1,1.18,4.49c0,.08-.07.1-.13.08a7.41,7.41,0,0,1-.3,4c.07.07.12-.11.16,0,.22-.4,0-.83.2-1.19l.07.07c.1-.28-.18-.09,0-.37.08-.11.09,0,.11,0A5.47,5.47,0,0,0,42,29c.16-.14,0-.66.14-.9-.07-.15-.06-.31-.18-.37a13.81,13.81,0,0,0-2-6.15c-.77-.71-1.2-1.9-2.1-2.74a0,0,0,0,1,0,0,7.1,7.1,0,0,1-1.09-.94l-.39-.15a14.45,14.45,0,0,0-7.65-3.62A15.56,15.56,0,0,0,24,14.06a10.11,10.11,0,0,0-4.32,1.66s0,0,0-.08c-.4.22-.79.42-1.16.65a5.46,5.46,0,0,0-1.06.74v0c-1.54,1.47-3.28,3.11-3.93,5.1a12.86,12.86,0,0,0-1.17,7.69h-.07a15,15,0,0,0,2,5.85c1.07,2,3.07,3.23,4.75,4.52,1,1,2.86,1.16,4,1.76a9.61,9.61,0,0,0,7.53.16,9.85,9.85,0,0,0,3.3-1.21c1-.53,1.95-1.23,2.95-1.81.63-.89,1.86-1.4,2.49-2.49h-.09c.46-.22.25-1,.67-1v0c.27-.12-.12-.67.14-.69l-.06-.07c.11-.26.11,0,.23-.16s-.14-.1,0-.23c.35.11.19-.66.58-.53-.06.15.24-.16.18.19.08-.08.25-.53.07-.55s-.25-.32-.48-.1l.1.09c-.16,0-.09,0-.19,0-.16.33-.36.31-.53.51h0c.08.23-.1.42-.18.53l-.09,0c-.18,0,.07.49-.11.28a9.49,9.49,0,0,1-1.23,2c0,.15-.41.47-.15.46-.31,0-.72.45-.89.59,0,0,0,0,0-.06-.51.09-.19.55-.72.57.13.25-.62.4-.62.77-.08,0-.12,0-.13-.09a4.92,4.92,0,0,1-1,.6c-.32.17-.63.35-.91.47a2.06,2.06,0,0,1-.77.46,1.53,1.53,0,0,0-.73.44,6.67,6.67,0,0,0-1.47.4l0,0a7.55,7.55,0,0,0-1.67.58c-.22-.27-.46-.19-.73-.26a3,3,0,0,1-.81.17,7.56,7.56,0,0,0-1,.1c-.09-.13-.51,0-.53-.17a7.91,7.91,0,0,1-5.36-1.48h0c-.25,0-.6.06-.88.06,0,0,0-.05,0,0-.32-.13-.5-.44-.79-.61,0,0,0,0,.08,0-.31-.1-.45-.48-.85-.56l0-.06-.23-.09s.11-.12.19,0a19.63,19.63,0,0,1-3.11-3,11.19,11.19,0,0,1-2.11-3.88l.09.09-.29-.52a.1.1,0,0,1,.08,0c-.08-.73-.44-1.43-.48-2.15,0,0,.11.1.13,0-.25-.51.13-.85-.23-1.1,0,0,.1,0,.13,0a9.34,9.34,0,0,1,.52-4.38,5.05,5.05,0,0,1,.53-1.87c.33-.58.61-1.19.9-1.78l.05,0a10.68,10.68,0,0,1,3.65-3.67c.63-.37,1-.7,1.67-1l.05.07a4.1,4.1,0,0,1,1.76-.75,8.71,8.71,0,0,0,1.88-.51l-.07.12c.17-.2.77-.08.65-.35a1,1,0,0,1,.24,0,2.2,2.2,0,0,1,1.25-.2,3.67,3.67,0,0,0,1.41,0l-.07.07a1.74,1.74,0,0,1,.83,0s0,0-.09,0a5.57,5.57,0,0,0,1.36.28,6,6,0,0,1,1.41.23l-.13.09a6.67,6.67,0,0,1,1.79.54l-.05,0,.31,0,0,.12c.36.14.7.3,1,.45A6.77,6.77,0,0,1,34.58,16.8Z" transform="translate(-8.54 -11.65)"/><path class="cls-3" d="M40,22.42h0S40,22.4,40,22.42Z" transform="translate(-8.54 -11.65)"/><path class="cls-3" d="M39.81,34.14l.06-.07S39.83,34.12,39.81,34.14Z" transform="translate(-8.54 -11.65)"/><text class="cls-4" transform="translate(2.46 20.67)">sush kaur</text><text class="cls-5" transform="translate(10.03 22.74)">pho<tspan class="cls-6" x="5.79" y="0">t</tspan><tspan x="7.11" y="0">og</tspan><tspan class="cls-7" x="10.95" y="0">r</tspan><tspan class="cls-8" x="12.27" y="0">ap</tspan><tspan class="cls-9" x="16.01" y="0">h</tspan><tspan class="cls-8" x="17.95" y="0">y</tspan></text></svg>